<svg width="32" height="32" viewBox="0 0 32 32" fill="none" xmlns="http://www.w3.org/2000/svg">
<defs>
  <linearGradient id="logoGradient" x1="0%" y1="0%" x2="100%" y2="100%">
    <stop offset="20%" style="stop-color:#2d2e47;stop-opacity:1" />
    <stop offset="100%" style="stop-color:#4f46e5;stop-opacity:1" />
  </linearGradient>
</defs>
<path d="M25.3335 12L23.6668 8.33331L20.0002 6.66665L23.6668 4.99998L25.3335 1.33331L27.0002 4.99998L30.6668 6.66665L27.0002 8.33331L25.3335 12V12M25.3335 30.6666L23.6668 27L20.0002 25.3333L23.6668 23.6666L25.3335 20L27.0002 23.6666L30.6668 25.3333L27.0002 27L25.3335 30.6666V30.6666M12.0002 26.6666L8.66683 19.3333L1.3335 16L8.66683 12.6666L12.0002 5.33331L15.3335 12.6666L22.6668 16L15.3335 19.3333L12.0002 26.6666V26.6666M12.0002 20.2L13.3335 17.3333L16.2002 16L13.3335 14.6666L12.0002 11.8L10.6668 14.6666L7.80016 16L10.6668 17.3333L12.0002 20.2V20.2M12.0002 16V16V16V16V16V16V16V16V16V16" fill="url(#logoGradient)"/>
</svg>
